<svg width="72" height="88" viewBox="0 0 72 88" fill="none" xmlns="http://www.w3.org/2000/svg">
<path d="M0 20C0 8.95431 8.95431 0 20 0H52C63.0457 0 72 8.95431 72 20V83C72 85.7614 69.7614 88 67 88H5C2.23857 88 0 85.7614 0 83V20Z" fill="#B8E15D"/>
<circle cx="36" cy="9" r="3.5" fill="white" stroke="white"/>
<path d="M63.0011 43.1811C56.9874 42.8441 51.2658 37.8304 48.4379 34.5222C48.0325 34.048 48.197 33.3307 48.7582 33.0581C58.4621 28.3447 63.9311 29.3758 65.4852 30.5314C68.8102 32.3511 67.0611 38.1072 65.3108 41.754C64.8823 42.6468 63.9898 43.2366 63.0011 43.1811Z" fill="#8D6752" stroke="#8D6752"/>
<path d="M62.2418 43.2038C58.3558 42.7917 54.6638 39.8406 52.3782 37.4022C51.5391 36.5069 51.852 35.0962 52.97 34.5902C59.6077 31.5863 63.3913 32.3703 64.5153 33.234C66.9713 34.6257 65.8358 38.8885 64.5583 41.7759C64.1513 42.6958 63.2422 43.3099 62.2418 43.2038Z" fill="#473B2D"/>
<path d="M8.13536 43.1811C14.1491 42.8441 19.8707 37.8304 22.6986 34.5222C23.104 34.048 22.9395 33.3307 22.3783 33.0581C12.6744 28.3447 7.20538 29.3758 5.65131 30.5314C2.32626 32.351 4.07534 38.1072 5.82565 41.754C6.25413 42.6468 7.14665 43.2366 8.13536 43.1811Z" fill="#8D6752" stroke="#8D6752"/>
<path d="M8.89464 43.2038C12.7807 42.7917 16.4727 39.8406 18.7582 37.4022C19.5974 36.5069 19.2844 35.0962 18.1665 34.5902C11.5287 31.5863 7.74514 32.3703 6.62113 33.234C4.16513 34.6257 5.30071 38.8885 6.57818 41.7759C6.98518 42.6958 7.89432 43.3099 8.89464 43.2038Z" fill="#473B2D"/>
<path fill-rule="evenodd" clip-rule="evenodd" d="M72 67.7054V82.7052C72 85.4666 69.7614 87.7052 67 87.7052H5C2.23858 87.7052 7.62939e-06 85.4666 7.62939e-06 82.7052V67.7314C2.54334e-06 67.7227 0 67.7141 0 67.7054L7.62939e-06 67.688V64.5941H0.0636754C1.17946 37.9792 16.8213 31.714 35.9609 31.7055L36 31.7054C55.1574 31.7054 70.8198 37.9611 71.9363 64.5941H72V67.7054Z" fill="#CEA68C"/>
<path fill-rule="evenodd" clip-rule="evenodd" d="M52.4847 47.7146C52.4898 47.712 52.4949 47.7093 52.5 47.7067C52.5 47.7067 42.1845 47.6568 35.5 47.7052C30.2938 47.7429 22.7592 47.7193 20.3052 47.71C20.2037 47.7079 20.102 47.7069 20 47.7069C19.9384 47.7069 19.8769 47.7073 19.8155 47.708C19.6105 47.7072 19.5 47.7067 19.5 47.7067C19.5087 47.7092 19.5173 47.7117 19.5259 47.7143C11.461 47.9646 5 54.5813 5 62.7069C5 70.9912 11.7157 77.7069 20 77.7069C27.7391 77.7069 34.1094 71.8459 34.9142 64.3205C35.8588 65.2991 36.7557 65.9939 37.3548 65.9651C38.8427 72.6828 44.8346 77.7069 52 77.7069C60.2843 77.7069 67 70.9912 67 62.7069C67 54.5848 60.5446 47.9705 52.4847 47.7146Z" fill="#8D6752"/>
<path d="M67.0001 61.7054H5.00011C4.83344 56.3721 10.5036 40.7055 36.0036 40.7054C61.2163 40.7054 67.1668 55.7054 67.0001 61.7054Z" fill="#8D6752"/>
<circle cx="27.5" cy="60.2054" r="2.5" fill="black"/>
<ellipse cx="44.5" cy="60.2054" rx="2.5" ry="2.5" fill="black"/>
<ellipse cx="56" cy="66.7054" rx="5" ry="5" fill="#FFD3CD"/>
<ellipse cx="17" cy="66.7054" rx="5" ry="5" fill="#FFD3CD"/>
<ellipse cx="36" cy="70.0388" rx="10" ry="8.33333" fill="#F9E0DB"/>
<ellipse cx="36" cy="64.2054" rx="4" ry="2.5" fill="#473B2D"/>
</svg>
