<svg width="72" height="88" viewBox="0 0 72 88" fill="none" xmlns="http://www.w3.org/2000/svg">
<path d="M0 20C0 8.95431 8.95431 0 20 0H52C63.0457 0 72 8.95431 72 20V83C72 85.7614 69.7614 88 67 88H5C2.23857 88 0 85.7614 0 83V20Z" fill="#FF9595"/>
<circle cx="36" cy="9" r="3.5" fill="#FF9595"/>
<circle cx="36" cy="9" r="3.5" fill="white"/>
<circle cx="36" cy="9" r="3.5" stroke="white"/>
<path d="M72 41V69L36 39L0 69V41C0 39 15.2 27 36 27C56.8 27 72 38 72 41Z" fill="#DF3535"/>
<path d="M72 53V68.5L36 51L0 68.5V53C0 51 15.2 38 36 38C56.8 38 72 50 72 53Z" fill="#F8F7FC"/>
<ellipse cx="36" cy="65" rx="36" ry="23" fill="#F8F7FC"/>
<circle cx="27.5" cy="58.5" r="2.5" fill="black"/>
<circle cx="44.5" cy="58.5" r="2.5" fill="black"/>
<circle cx="54" cy="64" r="5" fill="#FFD3CD"/>
<circle cx="18" cy="64" r="5" fill="#FFD3CD"/>
<path d="M4.68921 41.479C5.0319 42.6628 5.59643 43.8143 6.47434 44.6922" stroke="#E6E6E6" stroke-width="2" stroke-linecap="round"/>
<path d="M13.615 37.1948C14.0897 38.109 14.7762 38.9817 15.2216 39.8725" stroke="#E6E6E6" stroke-width="2" stroke-linecap="round"/>
<path d="M26.825 31.4824C27.269 32.7651 27.4132 34.1221 27.896 35.4097" stroke="#E6E6E6" stroke-width="2" stroke-linecap="round"/>
<path d="M42.8911 31.4824C43.3934 32.7103 43.3244 34.1359 43.0696 35.4097" stroke="#E6E6E6" stroke-width="2" stroke-linecap="round"/>
<path d="M55.3872 34.6956C55.3082 35.8411 54.6622 36.8706 54.3162 37.9088" stroke="#E6E6E6" stroke-width="2" stroke-linecap="round"/>
<path d="M66.6334 39.3369C66.5211 40.4977 65.9266 41.6485 65.2053 42.5502" stroke="#E6E6E6" stroke-width="2" stroke-linecap="round"/>
<path d="M36.0421 64.0988C33.4193 63.6718 30.3882 64.7311 27.8704 65.3275C26.2487 65.7115 24.6226 66.0932 23.0142 66.5301C22.7636 66.5982 22 66.6863 22 67.0762C22 68.4656 24.8167 69.1076 25.7316 69.3776C28.5719 70.2157 31.6155 70.8486 34.5859 70.5087C36.1821 70.3261 42.9858 69.6026 41.1584 66.3741C40.0512 64.418 38.3126 64.2158 36.2762 64.2158" stroke="#F68F39" stroke-width="2" stroke-linecap="round"/>
<path d="M24.1531 66.8571C23.9233 67.0486 23.7516 67.0571 24.165 66.9348C24.9766 66.6948 25.8588 66.6225 26.6931 66.5045C27.6602 66.3678 28.634 66.2874 29.6008 66.1519C30.8423 65.9779 32.0195 65.7174 33.2795 65.6618C34.3589 65.6141 35.4258 65.5662 36.5069 65.5662C37.4582 65.5662 38.3664 65.5769 39.298 65.8052C39.8305 65.9358 40.5523 66.1024 40.843 66.639C41.1124 67.1365 40.4499 67.4697 40.0929 67.5982C38.9177 68.0213 37.5688 68.1065 36.3395 68.2915C35.1498 68.4706 33.9883 68.716 32.7804 68.7368C31.7397 68.7547 30.7006 68.7181 29.6636 68.6292C27.8096 68.4703 26.1 67.7479 24.2905 67.3831C24.1603 67.3568 24.0512 67.3314 23.92 67.3114C23.8232 67.2965 23.5833 67.2029 23.6271 67.2904C23.6618 67.3597 23.7803 67.3139 23.8572 67.3233C24.387 67.3881 24.9181 67.446 25.45 67.4907C27.4569 67.6592 29.4818 67.6937 31.4954 67.661C32.6349 67.6425 33.7404 67.4627 34.8722 67.398C36.2295 67.3205 37.5862 67.1799 38.9454 67.1799" stroke="#F68F39" stroke-width="2" stroke-linecap="round"/>
<path d="M33.2217 65.5125C33.5988 66.0943 33.8758 66.5904 33.7596 67.2875" stroke="#624023" stroke-linecap="round"/>
<path d="M34.8574 64.8132C35.2533 65.1808 35.7155 65.4958 35.9721 65.9877C36.1059 66.2441 36.0946 66.5239 36.0946 66.8035" stroke="#624023" stroke-linecap="round"/>
</svg>
