<svg width="73" height="89" viewBox="0 0 73 89" fill="none" xmlns="http://www.w3.org/2000/svg">
<path d="M0 20C0 8.95431 8.95431 0 20 0H52C63.0457 0 72 8.95431 72 20V83C72 85.7614 69.7614 88 67 88H5C2.23857 88 0 85.7614 0 83V20Z" fill="#FFCE5A"/>
<circle cx="36" cy="9" r="3.5" fill="#FFCE5A"/>
<circle cx="36" cy="9" r="3.5" fill="white"/>
<circle cx="36" cy="9" r="3.5" stroke="white"/>
<path fill-rule="evenodd" clip-rule="evenodd" d="M50.7434 15.1501C51.2975 13.6276 51.763 12.1528 52.1311 10.7866C52.7574 10.5735 53.4507 10.2584 54.1519 9.85354C56.2296 8.65397 57.59 7.12046 57.1904 6.42836C56.804 5.75909 54.9133 6.12172 52.9101 7.23113C53.2824 4.87587 53.173 3.27915 52.4964 3.03287C51.3505 2.61582 48.9616 6.21088 46.8586 11.3491C46.7858 11.2116 46.7093 11.0734 46.6293 10.9349C45.4298 8.8572 43.8963 7.4968 43.2042 7.89638C42.5121 8.29597 42.9235 10.3042 44.123 12.3819C44.6124 13.2296 45.1574 13.9579 45.6782 14.496C43.7037 20.2642 43.0753 25.1144 44.2975 25.5592C45.3046 25.9258 47.2722 23.1925 49.1619 19.0362C49.9917 18.8865 51.0634 18.474 52.1542 17.8442C54.2319 16.6446 55.5923 15.1111 55.1928 14.419C54.7932 13.7269 52.7849 14.1383 50.7072 15.3379C50.6934 15.3459 50.6796 15.3539 50.6659 15.3619C50.6918 15.2915 50.7176 15.2209 50.7434 15.1501Z" fill="#40382F"/>
<path fill-rule="evenodd" clip-rule="evenodd" d="M21.4991 15.3276C20.945 13.8052 20.4795 12.3304 20.1114 10.9642C19.4852 10.751 18.7919 10.4359 18.0907 10.0311C16.0129 8.83148 14.6525 7.29798 15.0521 6.60588C15.4385 5.93661 17.3293 6.29924 19.3324 7.40865C18.9601 5.05339 19.0695 3.45667 19.7462 3.21039C20.892 2.79334 23.2809 6.3884 25.3839 11.5266C25.4568 11.3891 25.5332 11.251 25.6132 11.1124C26.8128 9.03472 28.3463 7.67432 29.0384 8.0739C29.7305 8.47349 29.3191 10.4817 28.1195 12.5595C27.6301 13.4072 27.0851 14.1354 26.5644 14.6735C28.5388 20.4417 29.1672 25.2919 27.9451 25.7367C26.9379 26.1033 24.9703 23.37 23.0807 19.2137C22.2509 19.0641 21.1792 18.6515 20.0883 18.0217C18.0106 16.8222 16.6502 15.2886 17.0498 14.5965C17.4494 13.9044 19.4576 14.3158 21.5354 15.5154C21.5492 15.5234 21.5629 15.5314 21.5767 15.5394C21.5508 15.469 21.5249 15.3984 21.4991 15.3276Z" fill="#40382F"/>
<ellipse cx="59.9932" cy="25.1728" rx="11.986" ry="4.99417" transform="rotate(-45 59.9932 25.1728)" fill="#8A553C"/>
<ellipse cx="58.3989" cy="27.5739" rx="7.99067" ry="2.49708" transform="rotate(-45 58.3989 27.5739)" fill="#FF8A88"/>
<ellipse cx="11.986" cy="4.99417" rx="11.986" ry="4.99417" transform="matrix(-0.707107 -0.707107 -0.707107 0.707107 24.0144 30.1168)" fill="#8A553C"/>
<ellipse cx="7.99067" cy="2.49708" rx="7.99067" ry="2.49708" transform="matrix(-0.707107 -0.707107 -0.707107 0.707107 21.0179 31.4585)" fill="#FF8A88"/>
<path d="M71.9167 59.3308C71.9167 80.9345 57.8154 76.7685 37.9564 76.7685C18.0973 76.7685 0.000732422 80.9345 0.000732422 59.3308C0.000732422 37.7272 16.0997 21.1565 35.9587 21.1565C55.8178 21.1565 71.9167 37.7272 71.9167 59.3308Z" fill="#C27547"/>
<ellipse cx="17.9797" cy="62.1087" rx="17.979" ry="25.9697" fill="#F3CEB3"/>
<ellipse cx="53.9377" cy="62.1087" rx="17.979" ry="25.9697" fill="#F3CEB3"/>
<ellipse cx="27.4679" cy="51.621" rx="2.49708" ry="2.49708" fill="black"/>
<ellipse cx="44.4481" cy="51.621" rx="2.49708" ry="2.49708" fill="black"/>
<circle cx="53.937" cy="57.1145" r="4.99417" fill="#F58885"/>
<ellipse cx="17.979" cy="57.1145" rx="4.99417" ry="4.99417" fill="#F58885"/>
<path d="M0 62.1087H71.916V83.0784C71.916 85.8398 69.6774 88.0784 66.916 88.0784H5C2.23857 88.0784 0 85.8398 0 83.0784V62.1087Z" fill="#F2CDB2"/>
<ellipse cx="35.958" cy="65.1052" rx="11.986" ry="9.98833" fill="#FAF1EC"/>
<ellipse cx="35.958" cy="57.614" rx="3.99533" ry="2.49708" fill="#F8634E"/>
</svg>
