<svg width="72" height="88" viewBox="0 0 72 88" fill="none" xmlns="http://www.w3.org/2000/svg">
<path d="M0 20C0 8.95431 8.95431 0 20 0H52C63.0457 0 72 8.95431 72 20V83C72 85.7614 69.7614 88 67 88H5C2.23857 88 0 85.7614 0 83V20Z" fill="#FFCCCC"/>
<circle cx="36" cy="9" r="3.5" fill="#FFCCCC"/>
<circle cx="36" cy="9" r="3.5" fill="white"/>
<circle cx="36" cy="9" r="3.5" stroke="white"/>
<ellipse cx="22.1178" cy="6.96034" rx="22.1178" ry="6.96034" transform="matrix(0.198715 -0.980057 0.942647 0.333791 41.4431 54.3534)" fill="#F8F7FC"/>
<ellipse cx="14.7452" cy="3.48017" rx="14.7452" ry="3.48017" transform="matrix(0.198715 -0.980057 0.942647 0.333791 45.9714 51.871)" fill="#FECBCB"/>
<ellipse cx="22.0821" cy="6.70338" rx="22.0821" ry="6.70338" transform="matrix(-0.190746 -0.981639 -0.938018 0.346586 30 54.3534)" fill="#F8F7FC"/>
<ellipse cx="14.7214" cy="3.35169" rx="14.7214" ry="3.35169" transform="matrix(-0.190746 -0.981639 -0.938018 0.346586 25.6602 51.871)" fill="#FECBCB"/>
<path d="M72 73.7115C72 91.0918 57.8823 87.7402 38 87.7402C18.1177 87.7402 0 91.0918 0 73.7115C0 56.3311 16.1177 42.9999 36 42.9999C55.8823 42.9999 72 56.3311 72 73.7115Z" fill="#F8F7FC"/>
<ellipse cx="27.5" cy="61.4999" rx="2.5" ry="2.5" fill="black"/>
<circle cx="44.5" cy="61.4999" r="2.5" fill="black"/>
<ellipse cx="36" cy="67.4999" rx="4" ry="2.5" fill="#FE95AA"/>
<circle cx="54" cy="66.9999" r="5" fill="#FFD3CD"/>
<circle cx="18" cy="66.9999" r="5" fill="#FFD3CD"/>
<path d="M0 71.9999L36 78.9999L72 71.9999V82.9999C72 85.7613 69.7614 87.9999 67 87.9999H5C2.23857 87.9999 0 85.7613 0 82.9999V71.9999Z" fill="#F8F7FC"/>
</svg>
