<svg width="72" height="88" viewBox="0 0 72 88" fill="none" xmlns="http://www.w3.org/2000/svg">
<path d="M0 20C0 8.95431 8.95431 0 20 0H52C63.0457 0 72 8.95431 72 20V83C72 85.7614 69.7614 88 67 88H5C2.23857 88 0 85.7614 0 83V20Z" fill="#D9DEF2"/>
<circle cx="36" cy="9" r="3.5" fill="#D9DEF2"/>
<circle cx="36" cy="9" r="3.5" fill="white"/>
<circle cx="36" cy="9" r="3.5" stroke="white"/>
<path d="M72 58.5C72 81.4198 57.8823 77 38 77C18.1177 77 0 81.4198 0 58.5C0 35.5802 16.1177 18 36 18C55.8823 18 72 35.5802 72 58.5Z" fill="#342B22"/>
<ellipse cx="22.5" cy="60.5" rx="22.5" ry="27.5" fill="#F8F7FC"/>
<ellipse cx="49.5" cy="60.5" rx="22.5" ry="27.5" fill="#F8F7FC"/>
<ellipse cx="27.5" cy="51.5" rx="2.5" ry="2.5" fill="black"/>
<circle cx="44.5" cy="51.5" r="2.5" fill="black"/>
<ellipse cx="36" cy="57.5" rx="4" ry="2.5" fill="#FFCE5A"/>
<ellipse cx="36" cy="60.5" rx="4" ry="2.5" fill="#FFCE5A"/>
<circle cx="54" cy="57" r="5" fill="#FFD3CD"/>
<circle cx="18" cy="57" r="5" fill="#FFD3CD"/>
<path d="M0 62L36 66L72 62V83C72 85.7614 69.7614 88 67 88H5C2.23857 88 0 85.7614 0 83V62Z" fill="#F8F7FC"/>
</svg>
